# xmcd
#
# Track frame offsets:
#	150
#	18815
#	42600
#	65070
#	83910
#	108618
#	129023
#	157973
#	182268
#	206380
#	228585
#	250100
#
# Disc length: 3711 seconds
#
# Revision: 0
# Processed by: cddbd v1.5.2PL0 Copyright (c) Steve Scherf et al.
# Submitted via: audiograbber 1.83.01
#
DISCID=930e7d0c
DTITLE=Levert, Gerald - Groove on
DYEAR=1994
DGENRE=Soul
TTITLE0=Groove on
TTITLE1=Rock me (all nite long)
TTITLE2=Let the juices flow
TTITLE3=I'd give anything
TTITLE4=Answering service
TTITLE5=Someone
TTITLE6=How many times
TTITLE7=Can't help myself
TTITLE8=Have mercy
TTITLE9=Same place, same time
TTITLE10=Nice and wet
TTITLE11=Love street
EXTD=
EXTT0=
EXTT1=
EXTT2=
EXTT3=
EXTT4=
EXTT5=
EXTT6=
EXTT7=
EXTT8=
EXTT9=
EXTT10=
EXTT11=
PLAYORDER=
